<svg id="logo" data-name="logo" xmlns="http://www.w3.org/2000/svg" viewBox="0 0 485.42 72.13" fill="white"><path d="M71.42,51.91h-23V50a4.36,4.36,0,0,0,3.13-.86c.55-.58.83-1.71.83-3.39V23.54h-.08L38.23,46.44h-5.4L17.42,23.83h-.21v22a4.78,4.78,0,0,0,.9,3.28,4,4,0,0,0,3.06,1v1.87H0V50a4.24,4.24,0,0,0,3.1-.9A4.93,4.93,0,0,0,4,45.79V7.63a5.21,5.21,0,0,0-.79-3.35c-.53-.6-1.59-.9-3.17-.9V1.51H20A7.59,7.59,0,0,0,21.31,5L36,27.79h.14L49.75,5a8.23,8.23,0,0,0,1.37-3.46h20.3V3.38a4.26,4.26,0,0,0-3.09.94,4.59,4.59,0,0,0-.94,3.31V45.79a4.73,4.73,0,0,0,.9,3.31,4.23,4.23,0,0,0,3.13.94Z"/><path d="M130,51.91H111q-4.53-5.53-7.85-15.62l-7.34-.15v9.65a4.58,4.58,0,0,0,.94,3.31,4.11,4.11,0,0,0,3,.94v1.87h-23V50a4.24,4.24,0,0,0,3.1-.9,4.93,4.93,0,0,0,.86-3.35V7.42a4.6,4.6,0,0,0-.83-3.1,4.1,4.1,0,0,0-3.13-.94V1.51Q92.23.72,100.87.72,130,.72,130,18.43a13.82,13.82,0,0,1-3.35,9.36,20.16,20.16,0,0,1-9.54,5.83q2.39,5.63,8.93,14.19A10.21,10.21,0,0,0,127.12,49a4.59,4.59,0,0,0,1.15.72A4,4,0,0,0,130,50ZM114.7,19.15q0-3.88-3.06-5.33c-2-1-5.3-1.44-9.76-1.44-.77,0-2.81.08-6.12.22V25.92a62.93,62.93,0,0,0,6.34.22c4.12,0,7.26-.54,9.39-1.62A5.57,5.57,0,0,0,114.7,19.15Z"/><path d="M148.46,46.51a6,6,0,0,1-1.94,4.75,7.07,7.07,0,0,1-4.9,1.73,7.46,7.46,0,0,1-5-1.73,5.86,5.86,0,0,1-2.05-4.75,6.08,6.08,0,0,1,2.09-4.75,7.16,7.16,0,0,1,5-1.87,6.8,6.8,0,0,1,4.86,1.87A6.26,6.26,0,0,1,148.46,46.51Z"/><path d="M215.21,3.31a4.1,4.1,0,0,0-3,1,4.77,4.77,0,0,0-1,3.42V35.35q0,5.68.79,7.2-10.72,10.59-23.18,10.59a27.87,27.87,0,0,1-20.53-8.28q1.74-2.1,9.08-12.17l1.65.93a3.6,3.6,0,0,0-.43,1.52A6.05,6.05,0,0,0,181.22,40a11,11,0,0,0,7,2,10.25,10.25,0,0,0,5.69-1.55,5.53,5.53,0,0,0,2.37-5V7.7c0-1.72-.29-2.88-.86-3.45a4.33,4.33,0,0,0-3.1-.87V1.51l22.9-.07Z"/><path d="M276.34,51.91H254.09V50c2,0,3-.62,3-1.87a4.87,4.87,0,0,0-.5-2l-.36-.72a44.58,44.58,0,0,1-10.37,1.44,47.17,47.17,0,0,1-10.8-1.44l-.29.94a9.76,9.76,0,0,0-.36,2.09c0,1,.89,1.58,2.66,1.58v1.87H215.21V50a3.65,3.65,0,0,0,2.55-.76,8.11,8.11,0,0,0,1.69-2.91L235.22,8.06a8.1,8.1,0,0,0,.87-2.73,1.72,1.72,0,0,0-2-1.95V1.51H257.9V3.38c-1.39,0-2.08.65-2.08,2a9.35,9.35,0,0,0,.79,2.81l15.62,38.3A8.23,8.23,0,0,0,274,49.32a3.45,3.45,0,0,0,2.34.72ZM252.07,35,244.8,15.84h-.14L238,35.06a21.08,21.08,0,0,0,7,1.16A18.67,18.67,0,0,0,252.07,35Z"/><path d="M338.61,3.38a4,4,0,0,0-3,1,4.76,4.76,0,0,0-.94,3.34V51.91H321.91a7.64,7.64,0,0,0-2.16-4.32L296.85,22V45.72q0,4.32,4,4.32v1.87H279.86V50q3.88,0,3.89-4.32V7.7a4.93,4.93,0,0,0-.9-3.31,4,4,0,0,0-3.06-1V1.51h18.79a6.19,6.19,0,0,0,1.57,3.61L321.41,28.7v-21a4.92,4.92,0,0,0-.9-3.39,4.15,4.15,0,0,0-3.06-.94V1.51h21.16Z"/><path d="M402.77,3.38a4,4,0,0,0-3,1,4.76,4.76,0,0,0-.93,3.34V51.91H386.06a7.64,7.64,0,0,0-2.16-4.32L361,22V45.72Q361,50,365,50v1.87H344V50c2.6,0,3.89-1.44,3.89-4.32V7.7a4.93,4.93,0,0,0-.9-3.31,4,4,0,0,0-3.06-1V1.51h18.79a6.15,6.15,0,0,0,1.58,3.61L385.56,28.7v-21a4.92,4.92,0,0,0-.9-3.39,4.15,4.15,0,0,0-3.06-.94V1.51h21.17Z"/><path d="M431.06,51.91h-23V50q4,0,4-4.25V7.7q0-4.32-4-4.32V1.51h23V3.38q-4,0-4,4.32V45.79q0,4.24,4,4.25Z"/><path d="M485.42,35.57q0,17.72-26.78,17.71a53.28,53.28,0,0,1-6.88-.47c-2.38-.31-4.33-.64-5.87-1a25.13,25.13,0,0,0-2.59-.5,10.26,10.26,0,0,0-2.59.28l-4.25-17.49,2-.58q1.57,4,7.27,6.45a33.64,33.64,0,0,0,13.17,2.41q5.47,0,7.92-1.34c1.63-.89,2.45-2,2.45-3.28a3,3,0,0,0-1.62-2.56,18.28,18.28,0,0,0-5.36-1.91l-12-2.78q-13.65-3.18-13.65-14.34,0-7.71,7-11.95T462.88,0a54,54,0,0,1,6.45.36c2,.24,3.54.48,4.64.72a16.2,16.2,0,0,0,1.95.36,9.68,9.68,0,0,0,2.95-.36l3.89,16.2-1.88.5a14,14,0,0,0-6.69-5.32A25,25,0,0,0,464,10.37q-11.29,0-11.3,4.22A2.77,2.77,0,0,0,454.38,17a23.36,23.36,0,0,0,5.46,1.82l12.38,2.95Q478.64,23.35,482,27A12.19,12.19,0,0,1,485.42,35.57Z"/><path d="M101.34,65a1.11,1.11,0,0,0-.87.31,1.39,1.39,0,0,0-.28,1v2.61a1.79,1.79,0,0,0,.23.94l-.66.34c-.33.17-.68.33-1,.5s-.73.32-1.09.46a12.82,12.82,0,0,1-4.77,1,9.62,9.62,0,0,1-6.5-2.18,7.1,7.1,0,0,1-2.53-5.63,6.86,6.86,0,0,1,1.25-4,7.84,7.84,0,0,1,3.29-2.7,10.56,10.56,0,0,1,4.45-.93,14.72,14.72,0,0,1,1.85.12c.63.08,1.14.15,1.55.23l.69.12a2.2,2.2,0,0,0,.91-.15L99,61.63l-.48.15a3.24,3.24,0,0,0-1.61-1.51,9.65,9.65,0,0,0-3.54-.46,5.55,5.55,0,0,0-1.67.27,6,6,0,0,0-1.6.79,3.81,3.81,0,0,0-1.24,1.39,4.09,4.09,0,0,0-.49,2,4,4,0,0,0,1.42,3.25,5,5,0,0,0,3.29,1.2,6.23,6.23,0,0,0,2.88-.55V66.27c0-.85-.39-1.28-1.16-1.28v-.54h6.57Z"/><path d="M123.44,57.58a1.89,1.89,0,0,0-1.54,1L116,67.43V70a1.4,1.4,0,0,0,.26,1,1.15,1.15,0,0,0,.9.29v.54h-6.7v-.54a1.19,1.19,0,0,0,.91-.28,1.34,1.34,0,0,0,.27-1V67.39l-5.88-8.74a3.66,3.66,0,0,0-.73-.84,1.21,1.21,0,0,0-.74-.23V57h7.47v.55c-.57,0-.86.21-.86.63a1.27,1.27,0,0,0,.21.61l3,5.19h0L117,58.88a1.7,1.7,0,0,0,.27-.75c0-.37-.28-.55-.86-.55V57h7Z"/><path d="M144.18,71.73h-5.56a14,14,0,0,1-2.29-4.55l-2.14-.05V70a1.34,1.34,0,0,0,.27,1,1.18,1.18,0,0,0,.88.28v.54h-6.7v-.54a1.22,1.22,0,0,0,.91-.27,1.4,1.4,0,0,0,.25-1V58.76a1.38,1.38,0,0,0-.24-.91,1.22,1.22,0,0,0-.92-.27V57q4.52-.22,7-.23,8.5,0,8.5,5.17a4.06,4.06,0,0,1-1,2.73,6,6,0,0,1-2.78,1.7,20.3,20.3,0,0,0,2.6,4.14l.3.33a1.44,1.44,0,0,0,.34.21,1.19,1.19,0,0,0,.51.11Zm-4.47-9.55a1.57,1.57,0,0,0-.89-1.56A7.13,7.13,0,0,0,136,60.2l-1.78.07v3.88a18,18,0,0,0,1.85.07,6.2,6.2,0,0,0,2.74-.48A1.61,1.61,0,0,0,139.71,62.18Z"/><path d="M167.41,64.47a7.25,7.25,0,0,1-.77,3.33,6.74,6.74,0,0,1-2,2.43,10.17,10.17,0,0,1-2.87,1.44,11.15,11.15,0,0,1-7.57-.35,7.87,7.87,0,0,1-3.31-2.64,7.35,7.35,0,0,1,0-8.39,8.5,8.5,0,0,1,3.34-2.79,10,10,0,0,1,4.29-1,10.22,10.22,0,0,1,4.28.91,8.18,8.18,0,0,1,3.33,2.77A7.15,7.15,0,0,1,167.41,64.47Zm-4.49,0a4.3,4.3,0,0,0-.72-2.5,4.1,4.1,0,0,0-1.7-1.5,4.88,4.88,0,0,0-2-.45,4.48,4.48,0,0,0-3.07,1.18,4.12,4.12,0,0,0-1.34,3.23,3.88,3.88,0,0,0,1.38,3.12,4.59,4.59,0,0,0,3,1.16,4.85,4.85,0,0,0,3.09-1.1A3.8,3.8,0,0,0,162.92,64.51Z"/><path d="M187.36,67q0,5.16-7.81,5.16a15.63,15.63,0,0,1-2-.13c-.69-.1-1.26-.19-1.71-.29a6.1,6.1,0,0,0-.76-.14,2.78,2.78,0,0,0-.75.08l-1.24-5.1.59-.17a3.62,3.62,0,0,0,2.12,1.88,9.75,9.75,0,0,0,3.84.7,5,5,0,0,0,2.31-.39,1.12,1.12,0,0,0,.72-.95.87.87,0,0,0-.48-.75,5.25,5.25,0,0,0-1.56-.56l-3.49-.81q-4-.93-4-4.18a3.87,3.87,0,0,1,2.05-3.49,10.84,10.84,0,0,1,5.6-1.24,15.86,15.86,0,0,1,1.88.11q.87.11,1.35.21a4.09,4.09,0,0,0,.57.1,2.85,2.85,0,0,0,.86-.1l1.13,4.72-.54.15a4.06,4.06,0,0,0-2-1.55,7.22,7.22,0,0,0-3-.61q-3.3,0-3.3,1.23a.81.81,0,0,0,.51.7,6.72,6.72,0,0,0,1.59.53l3.61.86a5.64,5.64,0,0,1,2.86,1.52A3.57,3.57,0,0,1,187.36,67Z"/><path d="M220.94,65.39a3,3,0,0,1-.4,1.43l-.36,0a.66.66,0,0,0-.73-.72,1.85,1.85,0,0,0-1,.3,3.49,3.49,0,0,0-.76.61c-.18.21-.42.51-.7.9l1.72,2.46a1.83,1.83,0,0,0,1.51.9v.5h-5.41l-.74-1.11a7.69,7.69,0,0,1-4.93,1.66,6.75,6.75,0,0,1-4.53-1.36A4.75,4.75,0,0,1,203,67.09a4.22,4.22,0,0,1,.45-1.91,5.2,5.2,0,0,1,1.22-1.59,10.44,10.44,0,0,1,1.59-1.21,13.54,13.54,0,0,1,1.78-.92l-2.65-4,.25-.44h10a3.9,3.9,0,0,0,.88-.12l1.28,3.84-.55.17a1.41,1.41,0,0,0-1.36-.84h-4l3,4.6q1.53-2.1,3.09-2.1C219.94,62.58,220.94,63.52,220.94,65.39Zm-8.72,2.37-2.43-3.67a3.37,3.37,0,0,0-1.68,1,2.3,2.3,0,0,0-.65,1.64,1.85,1.85,0,0,0,.65,1.48,2.28,2.28,0,0,0,1.59.58,3.36,3.36,0,0,0,1.41-.23A4.2,4.2,0,0,0,212.22,67.76Z"/><path d="M251.24,67q0,5.16-7.81,5.16a15.74,15.74,0,0,1-2-.13c-.69-.1-1.26-.19-1.71-.29a6.52,6.52,0,0,0-.75-.14,2.81,2.81,0,0,0-.76.08L237,66.55l.59-.17a3.62,3.62,0,0,0,2.12,1.88,9.78,9.78,0,0,0,3.84.7,5,5,0,0,0,2.31-.39,1.12,1.12,0,0,0,.72-.95.87.87,0,0,0-.48-.75,5.25,5.25,0,0,0-1.56-.56L241,65.5q-4-.93-4-4.18a3.89,3.89,0,0,1,2-3.49,10.86,10.86,0,0,1,5.6-1.24,15.73,15.73,0,0,1,1.88.11q.87.11,1.35.21a4.09,4.09,0,0,0,.57.1,2.85,2.85,0,0,0,.86-.1l1.13,4.72-.54.15A4.08,4.08,0,0,0,248,60.23a7.3,7.3,0,0,0-3-.61c-2.19,0-3.29.41-3.29,1.23a.79.79,0,0,0,.5.7,6.72,6.72,0,0,0,1.59.53l3.61.86a5.64,5.64,0,0,1,2.86,1.52A3.57,3.57,0,0,1,251.24,67Z"/><path d="M274.64,64.47a7.25,7.25,0,0,1-.77,3.33,6.67,6.67,0,0,1-2.05,2.43A10,10,0,0,1,269,71.67a10.6,10.6,0,0,1-3.28.5,10.77,10.77,0,0,1-4.29-.85,7.78,7.78,0,0,1-3.3-2.64,6.92,6.92,0,0,1-1.32-4.21,7,7,0,0,1,1.33-4.18,8.43,8.43,0,0,1,3.34-2.79,10,10,0,0,1,4.28-1,10.22,10.22,0,0,1,4.28.91,8.05,8.05,0,0,1,3.33,2.77A7.09,7.09,0,0,1,274.64,64.47Zm-4.5,0a4.37,4.37,0,0,0-.71-2.5,4.22,4.22,0,0,0-1.7-1.5,4.88,4.88,0,0,0-2-.45,4.5,4.5,0,0,0-3.08,1.18,4.11,4.11,0,0,0-1.33,3.23,3.91,3.91,0,0,0,1.37,3.12,4.62,4.62,0,0,0,3,1.16,4.89,4.89,0,0,0,3.09-1.1A3.79,3.79,0,0,0,270.14,64.51Z"/><path d="M297.61,57.56c-.77,0-1.16.42-1.16,1.26V67a3.73,3.73,0,0,0,.21,1.51A9.8,9.8,0,0,1,289,72.11a10.2,10.2,0,0,1-7.88-3.59,3.4,3.4,0,0,0,.24-1.51V58.84a1.26,1.26,0,0,0-.33-1,1.14,1.14,0,0,0-.83-.31V57h6.7v.55a1.16,1.16,0,0,0-.88.29,1.42,1.42,0,0,0-.28,1v7.5a2,2,0,0,0,1,1.71,4,4,0,0,0,2.28.66,4.86,4.86,0,0,0,2.5-.63,2,2,0,0,0,1.07-1.79V58.82c0-.84-.38-1.26-1.16-1.26V57h6.18Z"/><path d="M320.39,57.58a1,1,0,0,0-.7.25,2.33,2.33,0,0,0-.49.78l-4.5,11a4.55,4.55,0,0,0-.35,1.07c0,.37.17.55.52.55v.54h-6.72v-.54a.51.51,0,0,0,.57-.59,4.23,4.23,0,0,0-.32-1L304,58.67a2.44,2.44,0,0,0-.52-.85,1,1,0,0,0-.7-.24V57h6.56v.55c-.59,0-.89.24-.89.71a1.56,1.56,0,0,0,.11.57l3.3,8.88h0l3-8.9a2.26,2.26,0,0,0,.13-.59c0-.45-.25-.67-.74-.67V57h6.11Z"/><path d="M339.9,67.49l-1,4.43a3.6,3.6,0,0,0-1.2-.19H325.6v-.54c.77,0,1.16-.42,1.16-1.26V58.84c0-.84-.39-1.26-1.16-1.26V57h6.7v.55c-.77,0-1.15.42-1.15,1.26v9.6h6.67a1.71,1.71,0,0,0,1.54-1.18Z"/><path d="M362.27,71.73h-6.49v-.54c.59,0,.88-.18.88-.55a1.39,1.39,0,0,0-.15-.59l-.1-.21a13,13,0,0,1-3,.42,13.82,13.82,0,0,1-3.15-.42l-.08.28a2.75,2.75,0,0,0-.1.61c0,.3.25.46.77.46v.54h-6.38v-.54a1.11,1.11,0,0,0,.74-.22,2.47,2.47,0,0,0,.5-.85l4.6-11.18a2.53,2.53,0,0,0,.25-.79.5.5,0,0,0-.57-.57V57h6.93v.55c-.41,0-.61.19-.61.57a3,3,0,0,0,.23.82l4.56,11.17a2.29,2.29,0,0,0,.52.84,1,1,0,0,0,.68.21Zm-7.08-4.93-2.12-5.59h0l-1.94,5.61a6.33,6.33,0,0,0,2,.34A5.42,5.42,0,0,0,355.19,66.8Z"/><path d="M384.84,71.73h-6a38.71,38.71,0,0,1-3.29-6.46L373,67.39v2.54a1.34,1.34,0,0,0,.28,1,1.18,1.18,0,0,0,.87.28v.54h-6.69v-.54a1.18,1.18,0,0,0,.88-.29,1.39,1.39,0,0,0,.27-1V58.84a1.46,1.46,0,0,0-.25-1,1.21,1.21,0,0,0-.9-.27V57h6.69v.55a1.17,1.17,0,0,0-.89.28,1.48,1.48,0,0,0-.26,1V63h.13l4.2-4.16a1.1,1.1,0,0,0,.39-.73.6.6,0,0,0-.15-.42.61.61,0,0,0-.48-.17V57h7.59v.53a2.45,2.45,0,0,0-1.68.86l-4.06,4a30,30,0,0,0,1.88,3.87,40.38,40.38,0,0,0,2.39,3.92,2,2,0,0,0,1.61,1Z"/><path d="M396.85,71.73h-6.69v-.54c.77,0,1.15-.42,1.15-1.24V58.84c0-.84-.38-1.26-1.15-1.26V57h6.69v.55c-.77,0-1.15.42-1.15,1.26V70c0,.82.38,1.24,1.15,1.24Z"/></svg>