<svg
	xmlns="http://www.w3.org/2000/svg"
	xmlns:xlink="http://www.w3.org/1999/xlink" width="0" height="0" style="position:absolute">
	<symbol viewBox="0 0 17 17" id="facebook"
		xmlns="http://www.w3.org/2000/svg">
		<path d="M8.93 16.25H1.146a.897.897 0 01-.897-.897V.897A.897.897 0 011.147 0h14.456a.897.897 0 01.897.897v14.456a.897.897 0 01-.897.897h-4.14V9.957h2.112l.316-2.452h-2.429V5.939c0-.71.198-1.194 1.216-1.194h1.298V2.55c-.224-.03-.995-.097-1.892-.097-1.872 0-3.154 1.143-3.154 3.242v1.809H6.812v2.452H8.93v6.293z"/>
	</symbol>
	<symbol viewBox="0 0 17 17" id="instagram"
		xmlns="http://www.w3.org/2000/svg">
		<path d="M4.778 0C2.155 0 0 2.152 0 4.778v6.694c0 2.623 2.152 4.778 4.778 4.778h6.694c2.623 0 4.778-2.152 4.778-4.778V4.779C16.25 2.155 14.098 0 11.472 0H4.778zm0 1.477h6.694a3.297 3.297 0 013.3 3.301v6.694a3.297 3.297 0 01-3.3 3.3H4.779a3.297 3.297 0 01-3.302-3.3V4.779a3.297 3.297 0 013.301-3.302zm7.71 1.616a.666.666 0 00-.67.67c0 .372.297.669.67.669a.666.666 0 00.67-.67.666.666 0 00-.67-.669zm-4.363.6a4.445 4.445 0 00-4.432 4.432 4.445 4.445 0 004.432 4.432 4.445 4.445 0 004.432-4.432 4.445 4.445 0 00-4.432-4.432zm0 1.477a2.942 2.942 0 012.955 2.955 2.942 2.942 0 01-2.955 2.955A2.942 2.942 0 015.17 8.125 2.942 2.942 0 018.125 5.17z"/>
	</symbol>
</svg>
